# xmcd
#
# Track frame offsets:
#	150
#	15731
#	29153
#	40806
#	57056
#	73082
#	97000
#	112085
#	124730
#	143438
#	160397
#	175338
#	202338
#	216149
#
# Disc length: 3094 seconds
#
# Revision: 1
# Processed by: cddbd v1.5.2PL0 Copyright (c) Steve Scherf et al.
# Submitted via: audiograbber 1.83.01
#
DISCID=d40c140e
DTITLE=Wetterpropheten - So viel Zeit
DYEAR=2012
DGENRE=Blues
TTITLE0=Ich bin´s nicht
TTITLE1=1,2,3
TTITLE2=Sie lachte
TTITLE3=Kein Grund
TTITLE4=Wie viel Zeit
TTITLE5=Wenn Du gehst
TTITLE6=Leid
TTITLE7=Es ist so hart
TTITLE8=Am anderen Ende dieses Parks
TTITLE9=Handelsfachpacker
TTITLE10=Wovon ich rede
TTITLE11=Klaus
TTITLE12=Warmer Apfelkuchen (Instrumental)
TTITLE13=Klaus (Radio Edit)
EXTD=Blues - Deutsch\n
EXTT0=
EXTT1=
EXTT2=
EXTT3=
EXTT4=
EXTT5=
EXTT6=
EXTT7=
EXTT8=
EXTT9=
EXTT10=
EXTT11=
EXTT12=
EXTT13=
PLAYORDER=
